Coordinates
version=1
nRows=14
nColumns=42
inDegrees=yes

Units are S.I. units (second, meters, Newtons, ...)
If the header above contains a line with 'inDegrees', this indicates whether rotational values are in degrees (yes) or radians (no).

endheader
time	pelvis_tilt	pelvis_list	pelvis_rotation	pelvis_tx	pelvis_ty	pelvis_tz	hip_flexion_r	hip_adduction_r	hip_rotation_r	knee_angle_r	knee_adduction_r	knee_angle_r_beta	ankle_angle_r	subtalar_angle_r	mtp_angle_r	hip_flexion_l	hip_adduction_l	hip_rotation_l	knee_angle_l	knee_adduction_l	knee_angle_l_beta	ankle_angle_l	subtalar_angle_l	mtp_angle_l	lumbar_extension	lumbar_bending	lumbar_rotation	arm_flex_r	arm_add_r	arm_rot_r	elbow_flex_r	pro_sup_r	wrist_flex_r	wrist_dev_r	arm_flex_l	arm_add_l	arm_rot_l	elbow_flex_l	pro_sup_l	wrist_flex_l	wrist_dev_l
      0.50000000	     22.27818091	      1.45463672	      1.78513111	     -0.43103674	      0.93676227	     -0.17575070	     -2.63858265	      4.75526831	    -20.60470518	     33.56617388	    -15.55930296	      0.58584025	     15.42880130	     21.67216761	     -9.09066316	    -29.66277525	      5.88197358	     -3.72060898	     29.21023020	      0.41695662	      0.50981469	     15.77179754	    -17.67694266	     -9.09066316	    -35.49183811	     -3.74575799	      4.41654182	      5.15346197	    -10.41083330	    -37.72077986	     24.35735194	     90.00000001	      0.00000000	      0.00000000	     -0.78422160	    -19.06295746	      2.45966391	     68.24698604	     90.00000001	      0.00000000	      0.00000000
      0.51000000	     22.46195237	      1.45618989	      1.64749850	     -0.42558599	      0.93843570	     -0.17459838	     -3.60642186	      4.72437204	    -21.49855878	     32.58175444	    -15.68280357	      0.56865889	     15.60422871	     22.83778555	     -9.06503595	    -29.66439633	      5.51471102	     -3.68913555	     30.32696912	      1.08275599	      0.52930546	     14.44990706	    -17.95208583	     -9.06503595	    -35.67411143	     -3.87997325	      4.44688247	      5.63274374	    -10.33538811	    -37.55161406	     24.71584533	     90.00000001	      0.00000000	      0.00000000	     -0.73562991	    -19.13441100	      2.28666635	     68.32288270	     90.00000001	      0.00000000	      0.00000000
      0.52000000	     22.64415830	      1.61183322	      1.48445556	     -0.41993106	      0.93991113	     -0.17357875	     -4.40806114	      4.37902658	    -24.16176117	     31.37964798	    -16.70414324	      0.54767818	     15.61067410	     27.85707219	     -8.99190716	    -29.63664335	      5.30646828	     -3.46514606	     31.54669765	      1.84582646	      0.55059374	     13.29567386	    -18.27443573	     -8.99190716	    -35.81259723	     -4.17183380	      4.44592906	      5.95911458	    -10.26675330	    -36.79658283	     25.23043510	     90.00000001	      0.00000000	      0.00000000	     -0.71703143	    -19.15305073	      2.05940830	     68.48833737	     90.00000001	      0.00000000	      0.00000000
      0.53000000	     22.89115334	      1.77880958	      1.44717441	     -0.41458493	      0.94169466	     -0.17283157	     -5.44232160	      4.04170244	    -25.29978725	     30.50280665	    -16.61834472	      0.53237441	     16.00405958	     29.25260521	     -8.96776758	    -29.58465530	      5.05597259	     -3.01280663	     32.85216478	      2.60046086	      0.57337844	     11.85079772	    -18.42236715	     -8.96776758	    -36.06723971	     -4.38186268	      4.29568948	      6.46130850	    -10.18473276	    -36.42937667	     25.65845578	     90.00000001	      0.00000000	      0.00000000	     -0.66546015	    -19.24292232	      1.99969882	     68.59805056	     90.00000001	      0.00000000	      0.00000000
      0.54000000	     23.14797318	      1.95239432	      1.35700115	     -0.40908261	      0.94330988	     -0.17194134	     -6.37233696	      3.65292234	    -27.65991172	     29.36280231	    -17.21606368	      0.51247758	     15.84449436	     33.40913321	     -8.91072544	    -29.50843365	      4.79064726	     -2.57854245	     34.21043212	      3.44167009	      0.59708468	     10.59392121	    -18.60796227	     -8.91072544	    -36.31160281	     -4.64269878	      4.22259593	      6.77311915	    -10.12843052	    -35.34433475	     26.30965710	     90.00000001	      0.00000000	      0.00000000	     -0.63866871	    -19.29701119	      1.78663659	     68.86336110	     90.00000001	      0.00000000	      0.00000000
      0.55000000	     23.39924018	      2.25814827	      1.27669942	     -0.40383144	      0.94492032	     -0.17134804	     -7.28332012	      3.07090501	    -29.36855704	     28.59907237	    -17.35200085	      0.49914798	     16.06422750	     35.96265181	     -8.81945714	    -29.33463211	      4.69736741	     -1.94251774	     35.63273700	      4.27042432	      0.62190858	      9.38615502	    -18.76043768	     -8.81945714	    -36.58814357	     -4.99255471	      4.08922880	      7.02384441	    -10.17175502	    -33.63284356	     27.03028142	     90.00000001	      0.00000000	      0.00000000	     -0.54619395	    -19.33297059	      1.69195164	     69.05079571	     90.00000001	      0.00000000	      0.00000000
      0.56000000	     23.63254510	      2.38760797	      1.27647625	     -0.39880224	      0.94658276	     -0.17082766	     -8.28314397	      2.85277251	    -29.85569282	     27.87827249	    -17.00599071	      0.48656764	     16.14514835	     36.45638899	     -8.80529254	    -28.99960263	      4.34899793	     -1.43193126	     37.24784225	      5.09116249	      0.65009749	      8.22220889	    -18.87141862	     -8.80529254	    -36.87508306	     -5.10624957	      3.94049475	      7.61190818	    -10.09631480	    -33.31781831	     27.52230461	     90.00000001	      0.00000000	      0.00000000	     -0.49321195	    -19.30861376	      1.62976259	     69.21586375	     90.00000001	      0.00000000	      0.00000000
      0.57000000	     23.81677125	      2.48020259	      1.29125030	     -0.39380567	      0.94804889	     -0.17010684	     -9.20110806	      2.72033821	    -30.55163480	     27.07450672	    -16.80914658	      0.47253929	     16.04441273	     37.21368659	     -8.78520817	    -28.51171625	      3.90194533	     -1.02695281	     38.95845886	      5.91814255	      0.67995338	      7.28194081	    -19.01278441	     -8.78520817	    -37.11705272	     -5.22314406	      3.84492579	      8.13160887	    -10.05057700	    -32.74191042	     28.09463837	     90.00000001	      0.00000000	      0.00000000	     -0.40228050	    -19.35646102	      1.46750105	     69.46238058	     90.00000001	      0.00000000	      0.00000000
      0.58000000	     23.83341287	      2.57826543	      1.36696907	     -0.38904350	      0.94914979	     -0.16956103	     -9.85459651	      2.60089489	    -31.04687376	     26.47387763	    -16.57190292	      0.46205633	     15.97853603	     37.69288762	     -8.76018586	    -27.67889149	      3.45917381	     -0.69594862	     40.86354438	      6.60814705	      0.71320339	      6.63249081	    -19.09413242	     -8.76018586	    -37.22357546	     -5.30367617	      3.71382827	      8.63474519	     -9.99982212	    -31.93824467	     28.73485914	     90.00000001	      0.00000000	      0.00000000	     -0.28616878	    -19.34817278	      1.32939473	     69.68649850	     90.00000001	      0.00000000	      0.00000000
      0.59000000	     23.72867726	      2.61745071	      1.47423050	     -0.38439802	      0.94988144	     -0.16911164	    -10.29989578	      2.59163722	    -31.37491303	     25.99807763	    -16.41318078	      0.45375205	     15.87590485	     37.94530243	     -8.70485080	    -26.57597625	      2.92767303	     -0.57720202	     42.93244686	      7.18501214	      0.74931255	      6.45119594	    -19.14223367	     -8.70485080	    -37.20947671	     -5.31102405	      3.63074900	      8.91661529	    -10.12136884	    -30.07402023	     29.58826954	     90.00000001	      0.00000000	      0.00000000	     -0.16281425	    -19.26886023	      1.15354464	     69.91438414	     90.00000001	      0.00000000	      0.00000000
      0.60000000	     23.73621332	      2.91391734	      1.48885579	     -0.37991484	      0.95091192	     -0.16880058	    -10.90901295	      2.22924011	    -31.22176925	     25.65654765	    -15.91835144	      0.44779123	     16.03342111	     37.93201369	     -8.69145067	    -25.66836828	      2.82732289	     -0.22632599	     44.52668876	      7.58336470	      0.77713732	      6.10872650	    -19.18097083	     -8.69145067	    -37.37909868	     -5.59098479	      3.48437647	      9.56671048	    -10.06095902	    -29.70282065	     30.08300419	     90.00000001	      0.00000000	      0.00000000	      0.07229234	    -19.27895384	      1.14714234	     70.02421501	     90.00000001	      0.00000000	      0.00000000
      0.61000000	     23.49049875	      2.92319461	      1.77141554	     -0.37544410	      0.95129863	     -0.16875625	    -11.18430534	      2.30268545	    -31.30230613	     25.28059315	    -15.62065536	      0.44122959	     16.16379711	     37.93447166	     -8.66866481	    -24.26339765	      2.28027334	     -0.09923427	     46.47700414	      7.81712259	      0.81117675	      6.10449609	    -19.26184169	     -8.66866481	    -37.25261816	     -5.45401454	      3.23248658	     10.14678027	    -10.04808756	    -28.92394119	     30.78780086	     90.00000001	      0.00000000	      0.00000000	      0.12458659	    -19.26103006	      1.11767455	     70.27576971	     90.00000001	      0.00000000	      0.00000000
      0.62000000	     23.27455347	      2.92579122	      1.91962653	     -0.37109727	      0.95158807	     -0.16844352	    -11.39164878	      2.41952796	    -31.26129637	     25.01662369	    -15.53251728	      0.43662245	     16.24393220	     37.90092576	     -8.63388269	    -22.86843687	      1.72700473	     -0.28897323	     48.28753968	      7.97987991	      0.84277656	      6.60830648	    -19.27911821	     -8.63388269	    -37.19124048	     -5.39955673	      3.16816650	     10.58737649	    -10.15347516	    -27.57526409	     31.52625397	     90.00000001	      0.00000000	      0.00000000	      0.30325276	    -19.17462706	      1.06595790	     70.48558129	     90.00000001	      0.00000000	      0.00000000
      0.63000000	     23.19958875	      3.17763609	      2.05651763	     -0.36674886	      0.95224559	     -0.16854070	    -11.85401543	      2.17879530	    -30.90320823	     24.76198917	    -15.09615090	      0.43217824	     16.39542784	     37.78632137	     -8.61551113	    -21.72007143	      1.61680407	     -0.28411600	     49.53685889	      7.83084505	      0.86458129	      6.95244214	    -19.31417380	     -8.61551113	    -37.29928286	     -5.54106735	      2.96095350	     11.20541693	    -10.16144181	    -26.92641834	     32.10664091	     90.00000001	      0.00000000	      0.00000000	      0.49974002	    -19.11299080	      1.13048550	     70.61926509	     90.00000001	      0.00000000	      0.00000000
